<svg width="127" height="127" viewBox="0 0 127 127" fill="none" xmlns="http://www.w3.org/2000/svg">
<g filter="url(#filter0_ii_4_89)">
<circle cx="63.5" cy="63.5" r="63.5" fill="#C90A47"/>
</g>
<path d="M92.457 47.51C92.9068 47.829 93.4443 48.001 93.9957 48.0024C94.5472 48.0039 95.0855 47.8346 95.537 47.518C95.942 47.23 96.26 46.836 96.454 46.379L97.69 42.61C97.9922 41.7015 98.5021 40.876 99.179 40.199C99.856 39.5221 100.682 39.0122 101.59 38.71L105.221 37.527C105.742 37.3432 106.193 37.0024 106.512 36.5514C106.832 36.1004 107.003 35.5615 107.003 35.009C107.003 34.4565 106.832 33.9176 106.512 33.4666C106.193 33.0156 105.742 32.6748 105.221 32.491L101.521 31.298C100.615 30.9952 99.7923 30.4864 99.1165 29.8118C98.4407 29.1372 97.9305 28.3151 97.626 27.41L96.447 23.781C96.2635 23.2598 95.9224 22.8087 95.471 22.49C95.0176 22.1767 94.4796 22.0088 93.9285 22.0088C93.3774 22.0088 92.8394 22.1767 92.386 22.49C91.9265 22.8154 91.5812 23.2772 91.399 23.81L90.206 27.477C89.9031 28.359 89.4041 29.1607 88.7466 29.822C88.0891 30.4833 87.2902 30.987 86.41 31.295L82.783 32.473C82.2592 32.6575 81.8059 33.0008 81.4864 33.455C81.1668 33.9093 80.9969 34.4518 81.0002 35.0072C81.0035 35.5625 81.1799 36.1031 81.5048 36.5535C81.8297 37.0038 82.287 37.3417 82.813 37.52L86.4 38.685C87.3089 38.9897 88.1346 39.5016 88.8118 40.1802C89.4889 40.8588 89.9991 41.6854 90.302 42.595L91.482 46.218C91.665 46.739 92.005 47.191 92.457 47.51ZM94.162 45.388L94.1 45.469C94.07 45.4878 94.035 45.4973 93.9996 45.4962C93.9642 45.4951 93.9298 45.4836 93.901 45.463C93.8805 45.4491 93.8629 45.4315 93.849 45.411L92.679 41.811C92.2578 40.5291 91.5412 39.3641 90.587 38.41C89.6304 37.4552 88.4646 36.7362 87.182 36.31L83.613 35.156C83.5797 35.1431 83.5509 35.1209 83.53 35.092C83.5094 35.0628 83.4988 35.0277 83.5 34.992C83.5 34.956 83.512 34.922 83.532 34.892C83.5464 34.8722 83.564 34.855 83.584 34.841L87.204 33.666C88.4657 33.2289 89.61 32.5073 90.548 31.557C91.4598 30.6285 92.1524 29.5078 92.575 28.277L93.763 24.616C93.7748 24.5823 93.7968 24.5531 93.8261 24.5327C93.8553 24.5122 93.8903 24.5015 93.926 24.502C93.9566 24.5019 93.9868 24.5096 94.0136 24.5245C94.0404 24.5394 94.0629 24.5609 94.079 24.587L95.251 28.187C95.6775 29.462 96.394 30.6207 97.344 31.572C98.2994 32.5259 99.4633 33.2448 100.744 33.672L104.344 34.84L104.41 34.859C104.434 34.8711 104.454 34.8885 104.47 34.91C104.49 34.94 104.5 34.974 104.5 35.01C104.5 35.046 104.49 35.08 104.47 35.11C104.456 35.1286 104.439 35.1454 104.421 35.16L100.811 36.331C99.5317 36.7554 98.3693 37.4728 97.4163 38.426C96.4634 39.3791 95.7462 40.5417 95.322 41.821L94.162 45.388ZM107.876 56.642C108.205 56.875 108.597 57 109 57.001L109.005 57.004C109.413 57.0037 109.81 56.8754 110.141 56.6371C110.472 56.3988 110.72 56.0626 110.849 55.676L111.418 53.926C111.535 53.5768 111.731 53.2595 111.991 52.9989C112.251 52.7382 112.568 52.5415 112.917 52.424L114.707 51.842C114.99 51.7415 115.247 51.5768 115.456 51.3607C115.665 51.1447 115.821 50.8831 115.912 50.5966C116.003 50.31 116.027 50.0063 115.981 49.7092C115.935 49.4121 115.82 49.1296 115.647 48.884C115.4 48.5382 115.047 48.282 114.642 48.154L112.885 47.585C112.536 47.4684 112.218 47.2722 111.958 47.0119C111.698 46.7515 111.502 46.4342 111.385 46.085L110.803 44.296C110.669 43.9134 110.418 43.5823 110.086 43.3491C109.755 43.1159 109.358 42.9923 108.953 42.9957C108.547 42.999 108.153 43.129 107.825 43.3675C107.497 43.6061 107.252 43.9412 107.124 44.326L106.552 46.083C106.439 46.4269 106.248 46.7404 105.995 46.9995C105.742 47.2586 105.433 47.4565 105.092 47.578L103.302 48.16C102.92 48.2946 102.59 48.5451 102.357 48.8766C102.124 49.208 102.001 49.6039 102.004 50.0088C102.007 50.4138 102.137 50.8077 102.375 51.1354C102.613 51.4632 102.947 51.7085 103.331 51.837L105.083 52.407C105.433 52.5238 105.751 52.7209 106.011 52.9823C106.272 53.2438 106.468 53.5625 106.583 53.913L107.165 55.701C107.299 56.081 107.548 56.41 107.876 56.642ZM105.86 50.04L105.742 50.001L105.882 49.952C106.593 49.7065 107.238 49.2997 107.766 48.7635C108.294 48.2272 108.691 47.5761 108.925 46.861L108.965 46.74L109.005 46.868C109.244 47.5882 109.648 48.2425 110.185 48.7788C110.722 49.3152 111.377 49.7186 112.097 49.957L112.253 50.007L112.132 50.047C111.411 50.2859 110.755 50.6903 110.218 51.2277C109.681 51.7651 109.277 52.4206 109.039 53.142L108.999 53.263L108.959 53.14C108.72 52.417 108.316 51.76 107.777 51.2217C107.239 50.6834 106.582 50.2786 105.859 50.04H105.86Z" fill="white"/>
<path d="M92.457 47.51C92.9068 47.829 93.4443 48.001 93.9957 48.0024C94.5472 48.0039 95.0855 47.8346 95.537 47.518C95.942 47.23 96.26 46.836 96.454 46.379L97.69 42.61C97.9922 41.7015 98.5021 40.876 99.179 40.199C99.856 39.5221 100.682 39.0122 101.59 38.71L105.221 37.527C105.742 37.3432 106.193 37.0024 106.512 36.5514C106.832 36.1004 107.003 35.5615 107.003 35.009C107.003 34.4565 106.832 33.9176 106.512 33.4666C106.193 33.0156 105.742 32.6748 105.221 32.491L101.521 31.298C100.615 30.9952 99.7923 30.4864 99.1165 29.8118C98.4407 29.1372 97.9305 28.3151 97.626 27.41L96.447 23.781C96.2635 23.2598 95.9224 22.8087 95.471 22.49C95.0176 22.1767 94.4796 22.0088 93.9285 22.0088C93.3774 22.0088 92.8394 22.1767 92.386 22.49C91.9265 22.8154 91.5812 23.2772 91.399 23.81L90.206 27.477C89.9031 28.359 89.4041 29.1607 88.7466 29.822C88.0891 30.4833 87.2902 30.987 86.41 31.295L82.783 32.473C82.2592 32.6575 81.8059 33.0008 81.4864 33.455C81.1668 33.9093 80.9969 34.4518 81.0002 35.0072C81.0035 35.5625 81.1799 36.1031 81.5048 36.5535C81.8297 37.0038 82.287 37.3417 82.813 37.52L86.4 38.685C87.3089 38.9897 88.1346 39.5016 88.8118 40.1802C89.4889 40.8588 89.9991 41.6854 90.302 42.595L91.482 46.218C91.665 46.739 92.005 47.191 92.457 47.51ZM94.162 45.388L94.1 45.469C94.07 45.4878 94.035 45.4973 93.9996 45.4962C93.9642 45.4951 93.9298 45.4836 93.901 45.463C93.8805 45.4491 93.8629 45.4315 93.849 45.411L92.679 41.811C92.2578 40.5291 91.5412 39.3641 90.587 38.41C89.6304 37.4552 88.4646 36.7362 87.182 36.31L83.613 35.156C83.5797 35.1431 83.5509 35.1209 83.53 35.092C83.5094 35.0628 83.4988 35.0277 83.5 34.992C83.5 34.956 83.512 34.922 83.532 34.892C83.5464 34.8722 83.564 34.855 83.584 34.841L87.204 33.666C88.4657 33.2289 89.61 32.5073 90.548 31.557C91.4598 30.6285 92.1524 29.5078 92.575 28.277L93.763 24.616C93.7748 24.5823 93.7968 24.5531 93.8261 24.5327C93.8553 24.5122 93.8903 24.5015 93.926 24.502C93.9566 24.5019 93.9868 24.5096 94.0136 24.5245C94.0404 24.5394 94.0629 24.5609 94.079 24.587L95.251 28.187C95.6775 29.462 96.394 30.6207 97.344 31.572C98.2994 32.5259 99.4633 33.2448 100.744 33.672L104.344 34.84L104.41 34.859C104.434 34.8711 104.454 34.8885 104.47 34.91C104.49 34.94 104.5 34.974 104.5 35.01C104.5 35.046 104.49 35.08 104.47 35.11C104.456 35.1286 104.439 35.1454 104.421 35.16L100.811 36.331C99.5317 36.7554 98.3693 37.4728 97.4163 38.426C96.4634 39.3791 95.7462 40.5417 95.322 41.821L94.162 45.388ZM107.876 56.642C108.205 56.875 108.597 57 109 57.001L109.005 57.004C109.413 57.0037 109.81 56.8754 110.141 56.6371C110.472 56.3988 110.72 56.0626 110.849 55.676L111.418 53.926C111.535 53.5768 111.731 53.2595 111.991 52.9989C112.251 52.7382 112.568 52.5415 112.917 52.424L114.707 51.842C114.99 51.7415 115.247 51.5768 115.456 51.3607C115.665 51.1447 115.821 50.8831 115.912 50.5966C116.003 50.31 116.027 50.0063 115.981 49.7092C115.935 49.4121 115.82 49.1296 115.647 48.884C115.4 48.5382 115.047 48.282 114.642 48.154L112.885 47.585C112.536 47.4684 112.218 47.2722 111.958 47.0119C111.698 46.7515 111.502 46.4342 111.385 46.085L110.803 44.296C110.669 43.9134 110.418 43.5823 110.086 43.3491C109.755 43.1159 109.358 42.9923 108.953 42.9957C108.547 42.999 108.153 43.129 107.825 43.3675C107.497 43.6061 107.252 43.9412 107.124 44.326L106.552 46.083C106.439 46.4269 106.248 46.7404 105.995 46.9995C105.742 47.2586 105.433 47.4565 105.092 47.578L103.302 48.16C102.92 48.2946 102.59 48.5451 102.357 48.8766C102.124 49.208 102.001 49.6039 102.004 50.0088C102.007 50.4138 102.137 50.8077 102.375 51.1354C102.613 51.4632 102.947 51.7085 103.331 51.837L105.083 52.407C105.433 52.5238 105.751 52.7209 106.011 52.9823C106.272 53.2438 106.468 53.5625 106.583 53.913L107.165 55.701C107.299 56.081 107.548 56.41 107.876 56.642ZM105.86 50.04L105.742 50.001L105.882 49.952C106.593 49.7065 107.238 49.2997 107.766 48.7635C108.294 48.2272 108.691 47.5761 108.925 46.861L108.965 46.74L109.005 46.868C109.244 47.5882 109.648 48.2425 110.185 48.7788C110.722 49.3152 111.377 49.7186 112.097 49.957L112.253 50.007L112.132 50.047C111.411 50.2859 110.755 50.6903 110.218 51.2277C109.681 51.7651 109.277 52.4206 109.039 53.142L108.999 53.263L108.959 53.14C108.72 52.417 108.316 51.76 107.777 51.2217C107.239 50.6834 106.582 50.2786 105.859 50.04H105.86Z" fill="white"/>
<path d="M81 19V25" stroke="white" stroke-width="3" stroke-linecap="round"/>
<path d="M78 22H84" stroke="white" stroke-width="3" stroke-linecap="round"/>
<path d="M96 96V102" stroke="white" stroke-width="3" stroke-linecap="round"/>
<path d="M93 99H99" stroke="white" stroke-width="3" stroke-linecap="round"/>
<defs>
<filter id="filter0_ii_4_89" x="-3" y="-3" width="134" height="133" filterUnits="userSpaceOnUse" color-interpolation-filters="sRGB">
<feFlood flood-opacity="0" result="BackgroundImageFix"/>
<feBlend mode="normal" in="SourceGraphic" in2="BackgroundImageFix" result="shape"/>
<feColorMatrix in="SourceAlpha" type="matrix" values="0 0 0 0 0 0 0 0 0 0 0 0 0 0 0 0 0 0 127 0" result="hardAlpha"/>
<feMorphology radius="1" operator="erode" in="SourceAlpha" result="effect1_innerShadow_4_89"/>
<feOffset dx="-3" dy="3"/>
<feGaussianBlur stdDeviation="3.5"/>
<feComposite in2="hardAlpha" operator="arithmetic" k2="-1" k3="1"/>
<feColorMatrix type="matrix" values="0 0 0 0 1 0 0 0 0 1 0 0 0 0 1 0 0 0 0.35 0"/>
<feBlend mode="normal" in2="shape" result="effect1_innerShadow_4_89"/>
<feColorMatrix in="SourceAlpha" type="matrix" values="0 0 0 0 0 0 0 0 0 0 0 0 0 0 0 0 0 0 127 0" result="hardAlpha"/>
<feOffset dx="6" dy="-3"/>
<feGaussianBlur stdDeviation="2"/>
<feComposite in2="hardAlpha" operator="arithmetic" k2="-1" k3="1"/>
<feColorMatrix type="matrix" values="0 0 0 0 0.558333 0 0 0 0 0.0325695 0 0 0 0 0.201822 0 0 0 1 0"/>
<feBlend mode="normal" in2="effect1_innerShadow_4_89" result="effect2_innerShadow_4_89"/>
</filter>
</defs>
</svg>
