<svg width="127" height="127" viewBox="0 0 127 127" fill="none" xmlns="http://www.w3.org/2000/svg">
<g filter="url(#filter0_ii_4_82)">
<circle cx="63.5" cy="63.5" r="63.5" fill="#C90A47"/>
</g>
<path d="M91.457 47.51C91.9068 47.829 92.4443 48.001 92.9957 48.0024C93.5472 48.0039 94.0855 47.8346 94.537 47.518C94.942 47.23 95.26 46.836 95.454 46.379L96.69 42.61C96.9922 41.7015 97.5021 40.876 98.179 40.199C98.856 39.5221 99.6815 39.0122 100.59 38.71L104.221 37.527C104.742 37.3432 105.193 37.0024 105.512 36.5514C105.832 36.1004 106.003 35.5615 106.003 35.009C106.003 34.4565 105.832 33.9176 105.512 33.4666C105.193 33.0156 104.742 32.6748 104.221 32.491L100.521 31.298C99.6154 30.9952 98.7923 30.4864 98.1165 29.8118C97.4407 29.1372 96.9305 28.3151 96.626 27.41L95.447 23.781C95.2635 23.2598 94.9224 22.8087 94.471 22.49C94.0176 22.1767 93.4796 22.0088 92.9285 22.0088C92.3774 22.0088 91.8394 22.1767 91.386 22.49C90.9265 22.8154 90.5812 23.2772 90.399 23.81L89.206 27.477C88.9031 28.359 88.4041 29.1607 87.7466 29.822C87.0891 30.4833 86.2902 30.987 85.41 31.295L81.783 32.473C81.2592 32.6575 80.8059 33.0008 80.4864 33.455C80.1668 33.9093 79.9969 34.4518 80.0002 35.0072C80.0035 35.5625 80.1799 36.1031 80.5048 36.5535C80.8297 37.0038 81.287 37.3417 81.813 37.52L85.4 38.685C86.3089 38.9897 87.1346 39.5016 87.8118 40.1802C88.4889 40.8588 88.9991 41.6854 89.302 42.595L90.482 46.218C90.665 46.739 91.006 47.191 91.458 47.51H91.457ZM93.162 45.388L93.1 45.469C93.07 45.4878 93.035 45.4973 92.9996 45.4962C92.9642 45.4951 92.9298 45.4836 92.901 45.463C92.8805 45.4491 92.8629 45.4315 92.849 45.411L91.679 41.811C91.2578 40.5291 90.5412 39.3641 89.587 38.41C88.6304 37.4552 87.4646 36.7362 86.182 36.31L82.613 35.156C82.5797 35.1431 82.5509 35.1209 82.53 35.092C82.5094 35.0628 82.4988 35.0277 82.5 34.992C82.5 34.956 82.512 34.922 82.532 34.892C82.5464 34.8722 82.564 34.855 82.584 34.841L86.204 33.666C87.4657 33.2289 88.61 32.5073 89.548 31.557C90.4598 30.6285 91.1524 29.5078 91.575 28.277L92.763 24.616C92.7748 24.5823 92.7968 24.5531 92.8261 24.5327C92.8553 24.5122 92.8903 24.5015 92.926 24.502C92.9566 24.5019 92.9868 24.5096 93.0136 24.5245C93.0404 24.5394 93.0629 24.5609 93.079 24.587L94.251 28.187C94.6775 29.462 95.394 30.6207 96.344 31.572C97.2994 32.5259 98.4633 33.2448 99.744 33.672L103.344 34.84L103.41 34.859C103.434 34.8711 103.454 34.8885 103.47 34.91C103.49 34.94 103.5 34.974 103.5 35.01C103.5 35.046 103.49 35.08 103.47 35.11C103.456 35.1286 103.439 35.1454 103.421 35.16L99.811 36.331C98.5317 36.7554 97.3693 37.4728 96.4163 38.426C95.4634 39.3791 94.7462 40.5417 94.322 41.821L93.162 45.388ZM106.876 56.642C107.205 56.875 107.597 57 108 57.001L108.005 57.004C108.413 57.0037 108.81 56.8754 109.141 56.6371C109.472 56.3988 109.72 56.0626 109.849 55.676L110.418 53.926C110.535 53.5768 110.731 53.2595 110.991 52.9989C111.251 52.7382 111.568 52.5415 111.917 52.424L113.707 51.842C113.99 51.7415 114.247 51.5768 114.456 51.3607C114.665 51.1447 114.821 50.8831 114.912 50.5966C115.003 50.31 115.027 50.0063 114.981 49.7092C114.935 49.4121 114.82 49.1296 114.647 48.884C114.4 48.5382 114.047 48.282 113.642 48.154L111.885 47.585C111.536 47.4684 111.218 47.2722 110.958 47.0119C110.698 46.7515 110.502 46.4342 110.385 46.085L109.803 44.296C109.669 43.9134 109.418 43.5823 109.086 43.3491C108.755 43.1159 108.358 42.9923 107.953 42.9957C107.547 42.999 107.153 43.129 106.825 43.3675C106.497 43.6061 106.252 43.9412 106.124 44.326L105.552 46.083C105.439 46.4269 105.248 46.7404 104.995 46.9995C104.742 47.2586 104.433 47.4565 104.092 47.578L102.302 48.16C101.92 48.2946 101.59 48.5451 101.357 48.8766C101.124 49.208 101.001 49.6039 101.004 50.0088C101.007 50.4138 101.137 50.8077 101.375 51.1354C101.613 51.4632 101.947 51.7085 102.331 51.837L104.083 52.407C104.433 52.5238 104.751 52.7209 105.011 52.9823C105.272 53.2438 105.468 53.5625 105.583 53.913L106.165 55.701C106.299 56.081 106.547 56.41 106.875 56.642H106.876ZM104.86 50.04L104.742 50.001L104.882 49.952C105.593 49.7065 106.238 49.2997 106.766 48.7635C107.294 48.2272 107.691 47.5761 107.925 46.861L107.965 46.74L108.005 46.868C108.244 47.5882 108.648 48.2425 109.185 48.7788C109.722 49.3152 110.377 49.7186 111.097 49.957L111.253 50.007L111.132 50.047C110.411 50.2859 109.755 50.6903 109.218 51.2277C108.681 51.7651 108.277 52.4206 108.039 53.142L107.999 53.263L107.959 53.14C107.72 52.417 107.316 51.76 106.777 51.2217C106.239 50.6834 105.582 50.2786 104.859 50.04H104.86Z" fill="white"/>
<defs>
<filter id="filter0_ii_4_82" x="-3" y="-3" width="134" height="133" filterUnits="userSpaceOnUse" color-interpolation-filters="sRGB">
<feFlood flood-opacity="0" result="BackgroundImageFix"/>
<feBlend mode="normal" in="SourceGraphic" in2="BackgroundImageFix" result="shape"/>
<feColorMatrix in="SourceAlpha" type="matrix" values="0 0 0 0 0 0 0 0 0 0 0 0 0 0 0 0 0 0 127 0" result="hardAlpha"/>
<feMorphology radius="1" operator="erode" in="SourceAlpha" result="effect1_innerShadow_4_82"/>
<feOffset dx="-3" dy="3"/>
<feGaussianBlur stdDeviation="3.5"/>
<feComposite in2="hardAlpha" operator="arithmetic" k2="-1" k3="1"/>
<feColorMatrix type="matrix" values="0 0 0 0 1 0 0 0 0 1 0 0 0 0 1 0 0 0 0.35 0"/>
<feBlend mode="normal" in2="shape" result="effect1_innerShadow_4_82"/>
<feColorMatrix in="SourceAlpha" type="matrix" values="0 0 0 0 0 0 0 0 0 0 0 0 0 0 0 0 0 0 127 0" result="hardAlpha"/>
<feOffset dx="6" dy="-3"/>
<feGaussianBlur stdDeviation="2"/>
<feComposite in2="hardAlpha" operator="arithmetic" k2="-1" k3="1"/>
<feColorMatrix type="matrix" values="0 0 0 0 0.558333 0 0 0 0 0.0325695 0 0 0 0 0.201822 0 0 0 1 0"/>
<feBlend mode="normal" in2="effect1_innerShadow_4_82" result="effect2_innerShadow_4_82"/>
</filter>
</defs>
</svg>
